<?xml version="1.0" encoding="UTF-8"?>
<svg version="1.1" xmlns="http://www.w3.org/2000/svg" width="256" height="235">
<path d="M0 0 C84.48 0 168.96 0 256 0 C256 77.55 256 155.1 256 235 C171.52 235 87.04 235 0 235 C0 157.45 0 79.9 0 0 Z " fill="#FDFDFD" transform="translate(0,0)"/>
<path d="M0 0 C3.49078287 3.0978809 5.23409148 6.12788087 7.125 10.375 C7.62257813 11.47585937 8.12015625 12.57671875 8.6328125 13.7109375 C11.17017865 19.81511549 12.6039283 25.40180548 13 32 C13.11601562 33.89685547 13.11601562 33.89685547 13.234375 35.83203125 C13.91246067 52.17616879 8.32860014 68.49050869 -1.89453125 81.390625 C-4.88047933 84.48716375 -8.05918061 87.19848257 -12 89 C-12.99 88.505 -12.99 88.505 -14 88 C-13.22076172 87.36384766 -13.22076172 87.36384766 -12.42578125 86.71484375 C-7.82453116 82.84503083 -4.00788916 79.23954886 -1 74 C-1.03122528 71.15022836 -1.03122528 71.15022836 -2 69 C-4.64 69.33 -7.28 69.66 -10 70 C-10 70.66 -10 71.32 -10 72 C-10.66 72 -11.32 72 -12 72 C-12.12375 70.7625 -12.2475 69.525 -12.375 68.25 C-12.77657653 65.13640662 -13.10794943 62.58912183 -15 60 C-17.0335948 58.73195434 -17.0335948 58.73195434 -19 58 C-19.33 58.99 -19.66 59.98 -20 61 C-23.3 61 -26.6 61 -30 61 C-30.495 56.545 -30.495 56.545 -31 52 C-31.11320856 57.08303686 -31.11320856 57.08303686 -30 62 C-29.01 62.33 -28.02 62.66 -27 63 C-27.5 64.8125 -27.5 64.8125 -29 67 C-30.80859375 67.6875 -30.80859375 67.6875 -32.9375 68.3125 C-36.04608171 69.28182458 -36.04608171 69.28182458 -38.05078125 71.70703125 C-38.28152344 72.33996094 -38.51226562 72.97289062 -38.75 73.625 C-39.1625 74.73875 -39.575 75.8525 -40 77 C-41.9375 77.6875 -41.9375 77.6875 -44 78 C-45.37310707 79.29233607 -46.71034824 80.62437146 -48 82 C-50.73247348 83.36623674 -52.98198902 83.128426 -56 83 C-57.86916794 81.13083206 -57.21688008 78.12555426 -57.25 75.625 C-57.28867188 73.88089844 -57.28867188 73.88089844 -57.328125 72.1015625 C-56.96126336 68.63384653 -56.49149217 68.19352746 -54 66 C-52.98317174 62.82010071 -52.96098322 60.17536251 -54 57 C-56.43101417 54.86639714 -58.87620071 53.34586543 -61.71484375 51.80078125 C-64 50 -64 50 -64.87109375 46.98828125 C-65.04502986 42.956126 -64.40870784 41.25884002 -62 38 C-59.70022529 36.84597636 -57.36586246 35.93399012 -54.96484375 35.01171875 C-52.69590491 34.11864843 -52.69590491 34.11864843 -51.9375 31.25 C-51.958125 30.5075 -51.97875 29.765 -52 29 C-50.02 29.33 -48.04 29.66 -46 30 C-46.185625 29.4225 -46.37125 28.845 -46.5625 28.25 C-47.04023546 25.79307475 -46.75729364 24.35602466 -46 22 C-46.99 21.67 -47.98 21.34 -49 21 C-48.67 20.34 -48.34 19.68 -48 19 C-47.01 19 -46.02 19 -45 19 C-45 18.34 -45 17.68 -45 17 C-44.34 17 -43.68 17 -43 17 C-42.67 19.64 -42.34 22.28 -42 25 C-40.02463255 24.65213292 -40.02463255 24.65213292 -38 24 C-37.67 23.34 -37.34 22.68 -37 22 C-36.01 21.67 -35.02 21.34 -34 21 C-34.99 21 -35.98 21 -37 21 C-36.67 19.35 -36.34 17.7 -36 16 C-35.071875 15.71125 -34.14375 15.4225 -33.1875 15.125 C-29.90208333 14.1125 -29.90208333 14.1125 -27 12 C-23.625 11.5625 -23.625 11.5625 -20 12 C-16.75115506 14.59907595 -14.57260188 17.13997719 -13 21 C-14.65 20.67 -16.3 20.34 -18 20 C-18 20.99 -18 21.98 -18 23 C-16.453125 22.7525 -16.453125 22.7525 -14.875 22.5 C-11.51755674 22.06678152 -8.37663843 21.91764297 -5 22 C-5 22.66 -5 23.32 -5 24 C-4.21625 23.79375 -3.4325 23.5875 -2.625 23.375 C-1.325625 23.189375 -1.325625 23.189375 0 23 C0.99 23.99 0.99 23.99 2 25 C2.45375 24.505 2.9075 24.01 3.375 23.5 C5 22 5 22 7 22 C6.67 24.31 6.34 26.62 6 29 C7.47075246 24.58774263 8.36884358 21.51718381 7 17 C5.53984709 17.28241641 4.08190207 17.57626614 2.625 17.875 C1.81289062 18.03742188 1.00078125 18.19984375 0.1640625 18.3671875 C-2.18673923 18.86658932 -2.18673923 18.86658932 -4 21 C-3.6875 19.125 -3.6875 19.125 -3 17 C-0.08235 15.0549 1.62537285 14.54723683 5 14 C4.55527344 13.24074219 4.11054688 12.48148438 3.65234375 11.69921875 C3.08644531 10.70535156 2.52054687 9.71148437 1.9375 8.6875 C1.36902344 7.70136719 0.80054688 6.71523437 0.21484375 5.69921875 C-1 3 -1 3 0 0 Z " fill="#038181" transform="translate(174,84)"/>
<path d="M0 0 C3.1647557 -0.59339169 5.84837741 -0.72692224 9 0 C12.89169131 3.18958205 15.70214212 7.16322815 18.58984375 11.25 C20.27721713 13.34402569 21.38246085 13.63896012 24 14 C24.5534764 16.07553648 25 17.84365964 25 20 C25.495 20.66 25.99 21.32 26.5 22 C28 24 28 24 28 26 C28.91910156 25.67257813 29.83820313 25.34515625 30.78515625 25.0078125 C35.94760805 23.53282627 41.11212732 23.78491562 46.4375 23.875 C47.96407227 23.88853516 47.96407227 23.88853516 49.52148438 23.90234375 C52.01457156 23.92575302 54.50715859 23.958543 57 24 C57 25.32 57 26.64 57 28 C52.38625305 30.08505872 47.8556214 31.88720265 42.87890625 32.875 C35.32944806 33.9821688 35.32944806 33.9821688 29.30859375 38.03125 C28.33611912 40.45228601 28.33611912 40.45228601 28 44 C28.66 44 29.32 44 30 44 C29.67 45.65 29.34 47.3 29 49 C28.01 49 27.02 49 26 49 C25.82984375 49.6290625 25.6596875 50.258125 25.484375 50.90625 C21.8923784 63.59287629 21.8923784 63.59287629 19 67 C16.08736887 68.4966288 13.20007051 69.34357528 10 70 C10.58839799 64.77881324 11.79627935 60.18750198 13.5625 55.25 C15.39804078 50.25639697 15.39804078 50.25639697 16 45 C16.66 45 17.32 45 18 45 C18.33 42.69 18.66 40.38 19 38 C17.94683594 38.144375 16.89367187 38.28875 15.80859375 38.4375 C6.13142687 39.7034183 -3.23894701 40.25574811 -13 40 C-14.38683699 44.15234959 -14.38683699 44.15234959 -15.75 48.3125 C-17 50 -17 50 -20.125 50.75 C-21.07375 50.8325 -22.0225 50.915 -23 51 C-22.49287967 47.28111761 -21.88391785 44.26545761 -20 41 C-20.53753906 40.92265625 -21.07507813 40.8453125 -21.62890625 40.765625 C-24.9072093 39.70706257 -27.18077626 37.80817199 -29.9375 35.75 C-36.2243264 31.21669716 -42.61276741 28.39858302 -50 26 C-51.216875 25.566875 -52.43375 25.13375 -53.6875 24.6875 C-58.15230513 23.76084233 -62.45811262 23.83550508 -67 24 C-65.88625 24.103125 -64.7725 24.20625 -63.625 24.3125 C-62.42875 24.539375 -61.2325 24.76625 -60 25 C-59.01 26.485 -59.01 26.485 -58 28 C-56.515 28.495 -56.515 28.495 -55 29 C-54.3162955 30.32467746 -53.65035814 31.65863633 -53 33 C-51.515 33.99 -51.515 33.99 -50 35 C-50.804375 35.4125 -51.60875 35.825 -52.4375 36.25 C-55.14973801 37.71418298 -55.14973801 37.71418298 -55.66015625 40.109375 C-55.82837891 41.04523438 -55.82837891 41.04523438 -56 42 C-57.05058594 42.25394531 -58.10117188 42.50789063 -59.18359375 42.76953125 C-66.56859029 44.5735804 -73.83240636 46.44014513 -81 49 C-81 47.02 -81 45.04 -81 43 C-80.34 43 -79.68 43 -79 43 C-79.33 42.01 -79.66 41.02 -80 40 C-79.34 40 -78.68 40 -78 40 C-78.22860058 38.53815942 -78.48370392 37.08044581 -78.75 35.625 C-78.88921875 34.81289062 -79.0284375 34.00078125 -79.171875 33.1640625 C-79.81749261 30.82290908 -79.81749261 30.82290908 -82.078125 29.7109375 C-82.71234375 29.47632812 -83.3465625 29.24171875 -84 29 C-84 28.01 -84 27.02 -84 26 C-86.31 26.33 -88.62 26.66 -91 27 C-90.71125 27.74765625 -90.4225 28.4953125 -90.125 29.265625 C-89.75375 30.25046875 -89.3825 31.2353125 -89 32.25 C-88.62875 33.22453125 -88.2575 34.1990625 -87.875 35.203125 C-87 38 -87 38 -87 42 C-87.66 42 -88.32 42 -89 42 C-89 42.66 -89 43.32 -89 44 C-89.99 43.67 -90.98 43.34 -92 43 C-91.67 40.36 -91.34 37.72 -91 35 C-92.65 34.67 -94.3 34.34 -96 34 C-96.45375 34.825 -96.9075 35.65 -97.375 36.5 C-97.91125 37.325 -98.4475 38.15 -99 39 C-99.66 39 -100.32 39 -101 39 C-101.66 38.34 -102.32 37.68 -103 37 C-103.99 37.66 -104.98 38.32 -106 39 C-105.39009109 42.55780196 -104.4216319 45.6828589 -103 49 C-101.03243548 48.96877057 -101.03243548 48.96877057 -99 48 C-97.6954344 45.00384054 -97.6954344 45.00384054 -97 42 C-95.68 42.66 -94.36 43.32 -93 44 C-93 45.32 -93 46.64 -93 48 C-92.01 48 -91.02 48 -90 48 C-90 49.98 -90 51.96 -90 54 C-90.9178125 54.44730469 -91.835625 54.89460938 -92.78125 55.35546875 C-99.40908656 58.61161237 -105.82593333 61.925116 -112 66 C-112.495 65.01 -112.495 65.01 -113 64 C-115.32156597 63.59270772 -117.6568787 63.25561323 -120 63 C-120.33 64.65 -120.66 66.3 -121 68 C-119.68 68 -118.36 68 -117 68 C-117.66 69.65 -118.32 71.3 -119 73 C-121 73 -121 73 -123.625 70.5 C-124.800625 69.2625 -124.800625 69.2625 -126 68 C-129.3640607 71.3640607 -128.85104545 76.12583444 -129.33984375 80.71484375 C-129.99466796 83.97346598 -130.38446207 85.06863548 -133 87 C-134.05264987 72.40910323 -128.65672614 57.79856124 -119.86328125 46.17578125 C-117.66549272 43.67114615 -115.38797599 41.32310737 -113 39 C-112.31292969 38.29230469 -111.62585938 37.58460937 -110.91796875 36.85546875 C-99.39369427 25.67328776 -82.74385871 19.69717395 -66.8125 19.5625 C-56.28104202 19.76495549 -47.54921658 22.5432951 -38.0625 26.875 C-36.97884155 27.36613281 -36.97884155 27.36613281 -35.87329102 27.8671875 C-31.42221416 29.99879171 -28.38903132 32.33395221 -25 36 C-23.68 36.99 -22.36 37.98 -21 39 C-22.65 35.7 -24.3 32.4 -26 29 C-22.8125 28.625 -22.8125 28.625 -19 29 C-16.8596502 30.81188028 -15.61011698 32.65801167 -14 35 C-3.83738422 32.82608393 6.05977203 30.01182955 16 27 C15.01 24.03 15.01 24.03 14 21 C13.01 21 12.02 21 11 21 C10.88213135 20.41428223 10.7642627 19.82856445 10.64282227 19.22509766 C9.96870379 16.89166971 9.09625734 15.38433724 7.71484375 13.3984375 C7.26689453 12.74359375 6.81894531 12.08875 6.35742188 11.4140625 C5.88884766 10.74117187 5.42027344 10.06828125 4.9375 9.375 C0 2.26176671 0 2.26176671 0 0 Z " fill="#068383" transform="translate(188,36)"/>
<path d="M0 0 C3.1647557 -0.59339169 5.84837741 -0.72692224 9 0 C12.89169131 3.18958205 15.70214212 7.16322815 18.58984375 11.25 C20.27721713 13.34402569 21.38246085 13.63896012 24 14 C24.5534764 16.07553648 25 17.84365964 25 20 C25.495 20.66 25.99 21.32 26.5 22 C28 24 28 24 28 26 C28.91910156 25.67257813 29.83820313 25.34515625 30.78515625 25.0078125 C35.94760805 23.53282627 41.11212732 23.78491562 46.4375 23.875 C47.45521484 23.88402344 48.47292969 23.89304687 49.52148438 23.90234375 C52.01457156 23.92575302 54.50715859 23.958543 57 24 C57 25.32 57 26.64 57 28 C52.38625305 30.08505872 47.8556214 31.88720265 42.87890625 32.875 C35.32944806 33.9821688 35.32944806 33.9821688 29.30859375 38.03125 C28.33611912 40.45228601 28.33611912 40.45228601 28 44 C28.66 44 29.32 44 30 44 C29.67 45.65 29.34 47.3 29 49 C28.01 49 27.02 49 26 49 C25.82984375 49.6290625 25.6596875 50.258125 25.484375 50.90625 C21.8923784 63.59287629 21.8923784 63.59287629 19 67 C16.08736887 68.4966288 13.20007051 69.34357528 10 70 C10.58839799 64.77881324 11.79627935 60.18750198 13.5625 55.25 C15.39804078 50.25639697 15.39804078 50.25639697 16 45 C16.66 45 17.32 45 18 45 C18.33 42.69 18.66 40.38 19 38 C17.94683594 38.144375 16.89367187 38.28875 15.80859375 38.4375 C6.13142687 39.7034183 -3.23894701 40.25574811 -13 40 C-14.38683699 44.15234959 -14.38683699 44.15234959 -15.75 48.3125 C-17 50 -17 50 -20.125 50.75 C-21.07375 50.8325 -22.0225 50.915 -23 51 C-22.44894091 47.0507432 -21.61064629 43.65079826 -20 40 C-20.66 39.67 -21.32 39.34 -22 39 C-22.3449145 37.66961551 -22.67516582 36.33542939 -23 35 C-23.96887581 32.98473831 -24.9641321 30.98166034 -26 29 C-22.8125 28.625 -22.8125 28.625 -19 29 C-16.8596502 30.81188028 -15.61011698 32.65801167 -14 35 C-3.83738422 32.82608393 6.05977203 30.01182955 16 27 C15.34 25.02 14.68 23.04 14 21 C13.01 21 12.02 21 11 21 C10.88213135 20.41428223 10.7642627 19.82856445 10.64282227 19.22509766 C9.96870379 16.89166971 9.09625734 15.38433724 7.71484375 13.3984375 C7.26689453 12.74359375 6.81894531 12.08875 6.35742188 11.4140625 C5.88884766 10.74117187 5.42027344 10.06828125 4.9375 9.375 C0 2.26176671 0 2.26176671 0 0 Z " fill="#070707" transform="translate(188,36)"/>
<path d="M0 0 C5.23960768 1.38695497 7.97257638 4.72272259 11 9 C11.69313908 10.65583225 12.36474424 12.32110979 13 14 C15.02040748 16.27191416 15.02040748 16.27191416 17 18 C15.42800663 21.85852918 13.17110109 24.32218131 10 27 C7.69011685 27.74386068 5.35684056 28.42190703 3 29 C2.34 29.66 1.68 30.32 1 31 C-0.85483454 31.60713803 -2.73421385 32.14131052 -4.625 32.625 C-6.12933594 33.01558594 -6.12933594 33.01558594 -7.6640625 33.4140625 C-8.82035156 33.70410156 -8.82035156 33.70410156 -10 34 C-10.75649032 35.77905424 -10.75649032 35.77905424 -11 38 C-9.41795351 41.27114876 -7.1651367 44.08932094 -5 47 C-4.29875 47.99 -3.5975 48.98 -2.875 50 C5.57736299 59.72563562 17.63149006 65.97658646 30 69 C30 69.33 30 69.66 30 70 C23.78469977 70.36601212 19.74486851 69.55842211 14.25 66.6875 C13.56115723 66.33429688 12.87231445 65.98109375 12.16259766 65.6171875 C-3.01525211 57.43232898 -13.24890684 43.88215862 -19.1640625 27.84375 C-20.06868166 24.76635399 -20.15192472 22.19041916 -20 19 C-19.34 19 -18.68 19 -18 19 C-16.80712589 22.87684087 -16 25.91621923 -16 30 C-15.34 30 -14.68 30 -14 30 C-13.62875 29.195625 -13.62875 29.195625 -13.25 28.375 C-12 26 -12 26 -9.875 23.5625 C-7.53431388 20.26196418 -7.98801298 17.5013393 -8.25 13.5625 C-8.49273886 7.66933995 -8.49273886 7.66933995 -6.234375 4.6015625 C-4.22978439 2.88434327 -2.24793504 1.37987084 0 0 Z " fill="#068383" transform="translate(77,115)"/>
<path d="M0 0 C0 0.99 0 1.98 0 3 C0.639375 3.144375 1.27875 3.28875 1.9375 3.4375 C4 4 4 4 5 5 C5.25996373 6.45001991 5.45919978 7.91122093 5.625 9.375 C5.72039062 10.16648437 5.81578125 10.95796875 5.9140625 11.7734375 C6 14 6 14 5 17 C4.34 17 3.68 17 3 17 C3.495 19.475 3.495 19.475 4 22 C5.00160156 21.65066406 6.00320312 21.30132812 7.03515625 20.94140625 C8.37749252 20.48144487 9.7199468 20.02182781 11.0625 19.5625 C11.71927734 19.33240234 12.37605469 19.10230469 13.05273438 18.86523438 C17.37626855 17.39565872 21.46079726 16.51353789 26 16 C26.99 17.485 26.99 17.485 28 19 C27.08863281 19.18433594 26.17726563 19.36867188 25.23828125 19.55859375 C0.05639941 25.04326514 -29.15324054 38.7602983 -45.10546875 59.7734375 C-45.73066406 60.50820312 -46.35585938 61.24296875 -47 62 C-47.99 62 -48.98 62 -50 62 C-50 60.35 -50 58.7 -50 57 C-49.34 57.66 -48.68 58.32 -48 59 C-45.564622 56.564622 -46.06856945 50.62533317 -45.6953125 47.3203125 C-45.01163584 44.05556439 -44.62475613 42.93629551 -42 41 C-40.2925002 42.28062485 -38.62626404 43.61767557 -37 45 C-37 45.66 -37 46.32 -37 47 C-36.01 46.01 -35.02 45.02 -34 44 C-35.32 43.34 -36.64 42.68 -38 42 C-37.67 40.35 -37.34 38.7 -37 37 C-33.35014884 35.64820327 -31.47171347 36.44686503 -28 38 C-24.61515206 38 -21.92172315 35.79601212 -19.0625 34.125 C-18.42892578 33.76019531 -17.79535156 33.39539063 -17.14257812 33.01953125 C-14.37173947 31.41704833 -11.66406143 29.77604095 -9 28 C-8.01 28 -7.02 28 -6 28 C-6 26.02 -6 24.04 -6 22 C-6.99 22 -7.98 22 -9 22 C-9.66 20.35 -10.32 18.7 -11 17 C-11.66 17 -12.32 17 -13 17 C-13.2475 17.804375 -13.495 18.60875 -13.75 19.4375 C-15 22 -15 22 -17.125 22.8125 C-17.74375 22.874375 -18.3625 22.93625 -19 23 C-23 17.78787879 -23 17.78787879 -23 14.25 C-22 12 -22 12 -19.9375 10.6875 C-18.9784375 10.3471875 -18.9784375 10.3471875 -18 10 C-17.505 11.485 -17.505 11.485 -17 13 C-14.9754262 11.06745228 -13.57894208 9.36841312 -12 7 C-9.525 7.99 -9.525 7.99 -7 9 C-7 11.64 -7 14.28 -7 17 C-6.34 17.33 -5.68 17.66 -5 18 C-5 17.34 -5 16.68 -5 16 C-4.34 16 -3.68 16 -3 16 C-3.433125 14.62714844 -3.433125 14.62714844 -3.875 13.2265625 C-4.24625 12.03804687 -4.6175 10.84953125 -5 9.625 C-5.37125 8.44164063 -5.7425 7.25828125 -6.125 6.0390625 C-7 3 -7 3 -7 1 C-4 0 -4 0 0 0 Z " fill="#F2F7F7" transform="translate(104,62)"/>
<path d="M0 0 C0 0.33 0 0.66 0 1 C-0.70793701 1.13986328 -1.41587402 1.27972656 -2.14526367 1.42382812 C-29.50716598 6.92228648 -56.72250833 15.44928239 -79 33 C-79.82242188 33.62261719 -80.64484375 34.24523437 -81.4921875 34.88671875 C-93.23044846 43.96692365 -105.88491106 55.54274662 -108.3125 70.98828125 C-108.65353618 76.47683223 -106.72215006 80.3428276 -104 85 C-103.67 85.66 -103.34 86.32 -103 87 C-107.25373737 85.48080808 -108.83588994 82.85873344 -111 79 C-112.28855761 70.38750835 -111.58539326 62.44233611 -107 55 C-106.57589844 54.27683594 -106.15179688 53.55367187 -105.71484375 52.80859375 C-88.96156715 25.97535128 -57.08053555 9.82596609 -27.04296875 2.80859375 C-17.99271685 0.81513126 -9.31403638 -0.68151486 0 0 Z " fill="#0D0D0D" transform="translate(158,77)"/>
<path d="M0 0 C0.66 0 1.32 0 2 0 C1.71190255 1.66728734 1.41930221 3.3337967 1.125 5 C0.96257813 5.928125 0.80015625 6.85625 0.6328125 7.8125 C0.16540615 10.16684308 -0.40231644 12.50177662 -1.0234375 14.8203125 C-7.04949473 38.59758976 -1.05594185 63.76035233 10.8515625 84.61328125 C13.9176181 89.65766597 17.81982022 93.86016944 22 98 C22.845625 98.886875 23.69125 99.77375 24.5625 100.6875 C25.7690625 101.8321875 25.7690625 101.8321875 27 103 C27.78503906 103.77730469 27.78503906 103.77730469 28.5859375 104.5703125 C37.4692066 112.92883152 48.8690863 118.27504072 60 123 C60 123.99 60 124.98 60 126 C38.63511565 121.53186313 20.07824174 105.04365286 8.375 87.3125 C4.03683128 80.54225757 0.91481097 73.48294094 -2 66 C-2.34933594 65.1853125 -2.69867188 64.370625 -3.05859375 63.53125 C-9.71876116 45.62341397 -8.93367086 23.93992796 -3 6 C-2.04580561 3.97774555 -1.0603006 1.96869567 0 0 Z " fill="#1E1E1E" transform="translate(32,84)"/>
<path d="M0 0 C2.82424288 2.19022918 4.41508603 3.83017207 6 7 C6.57717357 11.73093088 6.43416625 15.14717343 4.25 19.4375 C0.81599073 23.348455 -0.73422166 23.85935796 -5.9375 24.4375 C-9.47528493 24.3648962 -9.97889945 24.01706002 -12.9375 21.625 C-16.79925102 16.71004415 -16.6609368 12.10705604 -16 6 C-12.07674482 -0.53875863 -7.20148212 -1.04172383 0 0 Z " fill="#0A0A0A" transform="translate(136,193)"/>
<path d="M0 0 C3.83654027 2.30192416 6.191879 4.90793668 8 9 C8.59676278 12.58057666 8.73781641 14.86281507 6.72265625 17.96875 C3.59317813 21.70269944 1.74459843 23.79870018 -3.25 24.375 C-8.02648802 23.8973512 -9.71884539 22.43376645 -13 19 C-15.34173225 15.06163212 -16.12558345 10.47615743 -15 6 C-11.06869955 0.34800878 -6.59724013 -1.06407099 0 0 Z " fill="#080808" transform="translate(182,175)"/>
<path d="M0 0 C3.05661905 2.73486967 3.93974578 4.20163153 4.25 8.3125 C4.1675 9.199375 4.085 10.08625 4 11 C5.423125 11.2165625 5.423125 11.2165625 6.875 11.4375 C10 12 10 12 12 13 C11.3125 15.4375 11.3125 15.4375 10 18 C6.87327877 19.26758969 5.39198948 19.13066316 2.1875 18.0625 C1.1046875 17.5365625 1.1046875 17.5365625 0 17 C0.33 17.598125 0.66 18.19625 1 18.8125 C2 21 2 21 2 24 C0.5 25.6875 0.5 25.6875 -1 27 C-4.75487443 25.49972651 -6.56107574 23.36477047 -9 20.1875 C-9.99 18.90939453 -9.99 18.90939453 -11 17.60546875 C-11.66 16.74566406 -12.32 15.88585937 -13 15 C-14.32995165 13.3306336 -15.66230159 11.66316521 -17 10 C-12.94709056 4.32592678 -7.54209649 -1.67602144 0 0 Z " fill="#0C0C0C" transform="translate(57,40)"/>
<path d="M0 0 C2.77630908 1.89601596 4.55916735 4.16458825 6.64453125 6.796875 C7.40894531 7.75335938 8.17335938 8.70984375 8.9609375 9.6953125 C9.66089844 10.59507813 10.36085938 11.49484375 11.08203125 12.421875 C11.66855469 13.15664063 12.25507812 13.89140625 12.859375 14.6484375 C14.08203125 16.421875 14.08203125 16.421875 14.08203125 18.421875 C11.43464209 19.8825035 10.18754791 20.421875 7.08203125 20.421875 C6.42203125 19.761875 5.76203125 19.101875 5.08203125 18.421875 C2.47922557 18.74228897 2.47922557 18.74228897 0.08203125 19.421875 C0.41203125 21.071875 0.74203125 22.721875 1.08203125 24.421875 C-1.56535791 25.8825035 -2.81245209 26.421875 -5.91796875 26.421875 C-7.10193758 18.39837196 -8.20342303 10.55732186 -7.91796875 2.421875 C-2.52923548 -0.76237648 -2.52923548 -0.76237648 0 0 Z " fill="#161616" transform="translate(78.91796875,25.578125)"/>
<path d="M0 0 C5.28 0.33 10.56 0.66 16 1 C17 4 17 4 16 7 C13.03 7 10.06 7 7 7 C7 7.99 7 8.98 7 10 C9.31 10 11.62 10 14 10 C13.67 11.98 13.34 13.96 13 16 C10.36 15.67 7.72 15.34 5 15 C5 16.32 5 17.64 5 19 C8.3 19 11.6 19 15 19 C14.67 20.65 14.34 22.3 14 24 C8.72 24 3.44 24 -2 24 C-1.85873374 20.93722733 -1.71215604 17.87486458 -1.5625 14.8125 C-1.50352539 13.51602539 -1.50352539 13.51602539 -1.44335938 12.19335938 C-1.40146484 11.35224609 -1.35957031 10.51113281 -1.31640625 9.64453125 C-1.27974854 8.87471924 -1.24309082 8.10490723 -1.20532227 7.31176758 C-0.98679335 4.85130346 -0.48443617 2.42218086 0 0 Z " fill="#0F0F0F" transform="translate(128,16)"/>
<path d="M0 0 C-0.375 2.9375 -0.375 2.9375 -1 6 C-1.99 6.495 -1.99 6.495 -3 7 C-3.99 6.34 -4.98 5.68 -6 5 C-6.99 5.33 -7.98 5.66 -9 6 C-8.4225 6.35191406 -7.845 6.70382813 -7.25 7.06640625 C-1.2236326 11.07352207 -1.2236326 11.07352207 -0.125 15.625 C-1 19 -1 19 -3.5625 21.4375 C-7.43682246 23.19855566 -9.7915478 23.4676058 -14 23 C-16.4375 22 -16.4375 22 -18 21 C-17.67 19.02 -17.34 17.04 -17 15 C-12.545 15.99 -12.545 15.99 -8 17 C-8 16.34 -8 15.68 -8 15 C-8.7425 14.7525 -9.485 14.505 -10.25 14.25 C-13.36557547 12.83382933 -15.02560769 11.80971213 -17 9 C-17 5.31263994 -16.78378446 3.01238826 -14.5 0.0625 C-9.81818158 -1.92727283 -4.7652317 -1.58841057 0 0 Z " fill="#0E0E0E" transform="translate(113,195)"/>
<path d="M0 0 C0.15921295 5.45666218 -0.41270801 10.5083716 -1.375 15.875 C-1.56449219 17.03128906 -1.56449219 17.03128906 -1.7578125 18.2109375 C-2.10001631 20.15465511 -2.54211392 22.08023909 -3 24 C-5.95664519 25.4783226 -8.74229737 25.06032783 -12 25 C-12.48210937 23.96359375 -12.96421875 22.9271875 -13.4609375 21.859375 C-14.09892902 20.48956968 -14.73695148 19.11977877 -15.375 17.75 C-15.69210938 17.06808594 -16.00921875 16.38617188 -16.3359375 15.68359375 C-16.6453125 15.01972656 -16.9546875 14.35585938 -17.2734375 13.671875 C-17.57217773 13.02927734 -17.87091797 12.38667969 -18.17871094 11.72460938 C-18.82548616 10.36645831 -19.517958 9.03006591 -20.2265625 7.703125 C-21 6 -21 6 -21 3 C-17.535 2.505 -17.535 2.505 -14 2 C-12.35 6.29 -10.7 10.58 -9 15 C-7.64908472 12.29816945 -7.66141942 9.88191794 -7.4375 6.875 C-7.35371094 5.77929688 -7.26992187 4.68359375 -7.18359375 3.5546875 C-7.12300781 2.71164063 -7.06242187 1.86859375 -7 1 C-4 0 -4 0 0 0 Z " fill="#0E0E0E" transform="translate(116,16)"/>
<path d="M0 0 C1.32 0 2.64 0 4 0 C4.90683038 25.25690544 -1.89348458 48.81996756 -19 68 C-19.99 67.67 -20.98 67.34 -22 67 C-20.7934375 65.5459375 -20.7934375 65.5459375 -19.5625 64.0625 C-11.27865089 52.9519346 -5.77457785 40.26157487 -2 27 C-1.823479 26.38842041 -1.64695801 25.77684082 -1.46508789 25.14672852 C-0.91376326 22.60195293 -0.78478205 20.18010974 -0.68359375 17.578125 C-0.64169922 16.55332031 -0.59980469 15.52851563 -0.55664062 14.47265625 C-0.51732422 13.40917969 -0.47800781 12.34570312 -0.4375 11.25 C-0.39431641 10.17105469 -0.35113281 9.09210938 -0.30664062 7.98046875 C-0.20071011 5.32043572 -0.09863579 2.66031188 0 0 Z " fill="#282828" transform="translate(213,113)"/>
<path d="M0 0 C1.32 0.66 2.64 1.32 4 2 C3.67 3.98 3.34 5.96 3 8 C9.435 12.455 9.435 12.455 16 17 C14.02 19.97 14.02 19.97 12 23 C7.96878791 20.7324432 4.39695332 18.05764401 0.76953125 15.20703125 C-0.91837048 13.81216448 -0.91837048 13.81216448 -3 14 C-3.99 15.485 -3.99 15.485 -5 17 C-6.32 16.34 -7.64 15.68 -9 15 C-9 10.98763758 -7.45029655 9.55593108 -5.0625 6.375 C-4.33160156 5.39273438 -3.60070312 4.41046875 -2.84765625 3.3984375 C-1 1 -1 1 0 0 Z " fill="#0B0B0B" transform="translate(31,59)"/>
<path d="M0 0 C4.75 0.875 4.75 0.875 7 2 C6.80664062 2.64066406 6.61328125 3.28132813 6.4140625 3.94140625 C4.9059252 8.95110985 3.42282214 13.96539857 2 19 C3.98 19.33 5.96 19.66 8 20 C7.67 21.65 7.34 23.3 7 25 C3.22134307 26.25955231 1.96588214 25.48087189 -1.6875 24.0625 C-2.68136719 23.68222656 -3.67523438 23.30195312 -4.69921875 22.91015625 C-5.45847656 22.60980469 -6.21773437 22.30945313 -7 22 C-5.0827282 14.49068545 -2.75950985 7.24196241 0 0 Z " fill="#0E0E0E" transform="translate(156,21)"/>
<path d="M0 0 C0.83719383 2.29032311 1.6698929 4.58210957 2.5 6.875 C2.73847656 7.52597656 2.97695312 8.17695313 3.22265625 8.84765625 C5 13.7734375 5 13.7734375 5 16 C7.31 15.34 9.62 14.68 12 14 C13 15 13 15 13.0625 17.5625 C13.041875 18.366875 13.02125 19.17125 13 20 C11.40084119 20.69906942 9.79544955 21.38389468 8.1875 22.0625 C7.29417969 22.44535156 6.40085938 22.82820313 5.48046875 23.22265625 C3 24 3 24 0 23 C-1.18730047 20.41274822 -2.18753199 17.9257881 -3.125 15.25 C-3.38925781 14.53328125 -3.65351563 13.8165625 -3.92578125 13.078125 C-5.25287521 9.41345945 -6.37663893 5.86179786 -7 2 C-2.25 0 -2.25 0 0 0 Z " fill="#0D0D0D" transform="translate(153,187)"/>
<path d="M0 0 C13.63389832 -0.46715134 24.41857095 1.15876448 36.9375 6.875 C37.65993896 7.20242187 38.38237793 7.52984375 39.12670898 7.8671875 C43.56309107 9.99175444 46.66878331 12.29132531 50 16 C51.3921875 17.3921875 51.3921875 17.3921875 52.8125 18.8125 C53.534375 19.534375 54.25625 20.25625 55 21 C50.89947253 20.40999605 48.32808811 18.18809051 45.0625 15.75 C38.77423563 11.21566027 32.386373 8.40486563 25 6 C23.824375 5.566875 22.64875 5.13375 21.4375 4.6875 C16.30036569 3.66007314 11.22026701 3.84570639 6 4 C6 3.34 6 2.68 6 2 C3.03 1.505 3.03 1.505 0 1 C0 0.67 0 0.34 0 0 Z " fill="#1C8888" transform="translate(113,56)"/>
<path d="M0 0 C3.6677889 1.4719416 5.22764526 3.37821343 7.5 6.5625 C16.18206546 17.70904786 28.38504169 24.67189908 42 28 C42 28.33 42 28.66 42 29 C35.78469977 29.36601212 31.74486851 28.55842211 26.25 25.6875 C25.56115723 25.33429688 24.87231445 24.98109375 24.16259766 24.6171875 C14.62125547 19.47189109 5.42516952 11.49404665 0 2 C0 1.34 0 0.68 0 0 Z " fill="#158A8A" transform="translate(65,156)"/>
<path d="M0 0 C1.21679124 2.87858041 1.03002694 3.92488176 -0.15234375 6.8828125 C-4.18598999 14.2086908 -8.49882446 20.67007593 -14 27 C-14.99 26.67 -15.98 26.34 -17 26 C-15.7934375 24.5459375 -15.7934375 24.5459375 -14.5625 23.0625 C-10.71426366 17.99274712 -7.93038746 12.39296315 -5.07250977 6.72875977 C-4.70311279 6.00487061 -4.33371582 5.28098145 -3.953125 4.53515625 C-3.46054199 3.55107788 -3.46054199 3.55107788 -2.95800781 2.54711914 C-2 1 -2 1 0 0 Z " fill="#151515" transform="translate(208,154)"/>
<path d="M0 0 C1.2065625 0.0309375 1.2065625 0.0309375 2.4375 0.0625 C4.76238647 3.69513511 4.67711213 6.82935233 4.4375 11.0625 C3.4375 12.0625 3.4375 12.0625 0.875 12.125 C0.070625 12.104375 -0.73375 12.08375 -1.5625 12.0625 C-3.88738647 8.42986489 -3.80211213 5.29564767 -3.5625 1.0625 C-2.5625 0.0625 -2.5625 0.0625 0 0 Z " fill="#ECECEC" transform="translate(130.5625,198.9375)"/>
<path d="M0 0 C3.50553578 3.11011743 5.27275191 6.17976967 7.1875 10.4375 C7.95126953 12.10619141 7.95126953 12.10619141 8.73046875 13.80859375 C9.83323572 16.58078027 10.54440318 19.06332169 11 22 C10.01 22 9.02 22 8 22 C7.67 20.35 7.34 18.7 7 17 C5.53984709 17.28241641 4.08190207 17.57626614 2.625 17.875 C1.40683594 18.11863281 1.40683594 18.11863281 0.1640625 18.3671875 C-2.18673923 18.86658932 -2.18673923 18.86658932 -4 21 C-3.6875 19.125 -3.6875 19.125 -3 17 C-0.08235 15.0549 1.62537285 14.54723683 5 14 C4.55527344 13.24074219 4.11054688 12.48148438 3.65234375 11.69921875 C3.08644531 10.70535156 2.52054688 9.71148437 1.9375 8.6875 C1.36902344 7.70136719 0.80054688 6.71523437 0.21484375 5.69921875 C-1 3 -1 3 0 0 Z " fill="#249292" transform="translate(174,84)"/>
<path d="M0 0 C3.41175854 0.12184852 4.34604745 1.34604745 6.8125 3.8125 C9 7 9 7 8.8125 9.375 C8.544375 9.91125 8.27625 10.4475 8 11 C6.35 11.33 4.7 11.66 3 12 C2.13050683 10.92892883 1.27985795 9.84254056 0.4375 8.75 C-0.03816406 8.14671875 -0.51382813 7.5434375 -1.00390625 6.921875 C-2 5 -2 5 -1.71484375 2.828125 C-1 1 -1 1 0 0 Z " fill="#EEEEEE" transform="translate(175,181)"/>
<path d="M0 0 C2.2 6.23333333 2.2 6.23333333 1.25 9.875 C0 12 0 12 -2 13 C-1.34 10.36 -0.68 7.72 0 5 C-1.65 6.32 -3.3 7.64 -5 9 C-5.99 8.34 -6.98 7.68 -8 7 C-10.11280345 6.36707617 -10.11280345 6.36707617 -12 6 C-11.34 5.67 -10.68 5.34 -10 5 C-9.835 4.34 -9.67 3.68 -9.5 3 C-9.335 2.34 -9.17 1.68 -9 1 C-6.04335481 -0.4783226 -3.25770263 -0.06032783 0 0 Z " fill="#DFEFEF" transform="translate(181,101)"/>
<path d="M0 0 C0 0.33 0 0.66 0 1 C-1.09699219 1.26554687 -2.19398438 1.53109375 -3.32421875 1.8046875 C-4.77869247 2.16126815 -6.23311698 2.5180496 -7.6875 2.875 C-8.7693457 3.13603516 -8.7693457 3.13603516 -9.87304688 3.40234375 C-12.98081846 4.16864359 -15.89905551 4.95940276 -18.875 6.15625 C-21.36953736 7.14672807 -22.52256156 6.91756979 -25 6 C-24 4 -24 4 -20.796875 2.74609375 C-19.45043939 2.30216993 -18.1013249 1.86631025 -16.75 1.4375 C-16.08097656 1.21642578 -15.41195312 0.99535156 -14.72265625 0.76757812 C-4.20983602 -2.65063749 -4.20983602 -2.65063749 0 0 Z " fill="#E5EFEF" transform="translate(132,80)"/>
<path d="M0 0 C0.66 0.33 1.32 0.66 2 1 C1.01 2.485 1.01 2.485 0 4 C-0.58000106 7.57452503 -0.95356911 11.14977039 -1.33984375 14.75 C-1.9971147 17.98579543 -2.40386489 19.07588896 -5 21 C-5.22081501 14.32647966 -5.1949258 8.35373257 -3 2 C-2.01 1.34 -1.02 0.68 0 0 Z " fill="#219090" transform="translate(60,102)"/>
<path d="M0 0 C0 0.33 0 0.66 0 1 C-2.93666226 1.67055285 -5.87422359 2.33659053 -8.8125 3 C-9.64587891 3.19078125 -10.47925781 3.3815625 -11.33789062 3.578125 C-12.14033203 3.75859375 -12.94277344 3.9390625 -13.76953125 4.125 C-14.50792236 4.29257813 -15.24631348 4.46015625 -16.00708008 4.6328125 C-18 5 -18 5 -21 5 C-21 4.34 -21 3.68 -21 3 C-21.99 2.67 -22.98 2.34 -24 2 C-15.91191011 0.39385449 -8.2425317 -0.26305952 0 0 Z " fill="#3E3E3E" transform="translate(158,77)"/>
<path d="M0 0 C16.8929385 -0.3690205 16.8929385 -0.3690205 24 2 C24 2.66 24 3.32 24 4 C18.06 4 12.12 4 6 4 C6 3.34 6 2.68 6 2 C3.03 1.505 3.03 1.505 0 1 C0 0.67 0 0.34 0 0 Z " fill="#3A9D9D" transform="translate(113,56)"/>
<path d="M0 0 C0.33 0.99 0.66 1.98 1 3 C-6.59047487 10.98421708 -6.59047487 10.98421708 -11 13 C-11.66 12.67 -12.32 12.34 -13 12 C-12.48050781 11.55269531 -11.96101562 11.10539063 -11.42578125 10.64453125 C-7.47320346 7.21798969 -3.64172918 3.75553321 0 0 Z " fill="#178B8B" transform="translate(173,160)"/>
<path d="M0 0 C1.4589426 0.47730838 2.91713496 0.95691042 4.375 1.4375 C5.18710938 1.70433594 5.99921875 1.97117188 6.8359375 2.24609375 C9 3 9 3 11 4 C10.67 4.99 10.34 5.98 10 7 C6.04 5.68 2.08 4.36 -2 3 C-1.34 2.67 -0.68 2.34 0 2 C0 1.34 0 0.68 0 0 Z " fill="#259292" transform="translate(137,58)"/>
<path d="M0 0 C0.66 0 1.32 0 2 0 C2.99 3.96 3.98 7.92 5 12 C4.01 12 3.02 12 2 12 C0.40861915 7.82262526 -0.21278058 4.46839215 0 0 Z " fill="#1A8C8C" transform="translate(57,134)"/>
<path d="M0 0 C2.0625 0.4375 2.0625 0.4375 4 1 C4.33 2.32 4.66 3.64 5 5 C3.68 5.33 2.36 5.66 1 6 C0.34 4.35 -0.32 2.7 -1 1 C-0.67 0.67 -0.34 0.34 0 0 Z " fill="#E0E0E0" transform="translate(50,47)"/>
<path d="M0 0 C0 0.99 0 1.98 0 3 C-3.96 4.98 -3.96 4.98 -8 7 C-7 3 -7 3 -4.5625 1.25 C-2 0 -2 0 0 0 Z " fill="#E3EAEA" transform="translate(90,94)"/>
<path d="M0 0 C0 0.33 0 0.66 0 1 C-3.3 1.66 -6.6 2.32 -10 3 C-9.67 1.68 -9.34 0.36 -9 -1 C-5.22102349 -2.0497157 -3.35080929 -2.10976881 0 0 Z " fill="#DEE2E2" transform="translate(132,80)"/>
<path d="M0 0 C1.32 0 2.64 0 4 0 C2.95125002 2.62187494 2.35068687 3.79371361 -0.125 5.25 C-0.74375 5.4975 -1.3625 5.745 -2 6 C-1.125 1.125 -1.125 1.125 0 0 Z " fill="#249292" transform="translate(136,161)"/>
<path d="M0 0 C0.66 0 1.32 0 2 0 C1.45276317 3.37462715 0.9451 5.08235 -1 8 C-1 7.01 -1 6.02 -1 5 C-1.99 4.67 -2.98 4.34 -4 4 C-3.67 3.34 -3.34 2.68 -3 2 C-2.01 2 -1.02 2 0 2 C0 1.34 0 0.68 0 0 Z " fill="#3F9F9F" transform="translate(129,101)"/>
<path d="M0 0 C0 0.66 0 1.32 0 2 C-1.134375 2.12375 -2.26875 2.2475 -3.4375 2.375 C-5.2009375 2.684375 -5.2009375 2.684375 -7 3 C-7.33 3.66 -7.66 4.32 -8 5 C-8 3.68 -8 2.36 -8 1 C-3.375 -1.125 -3.375 -1.125 0 0 Z " fill="#1B8D8D" transform="translate(104,60)"/>
<path d="M0 0 C2.1723491 3.25852365 4.07119658 6.59244728 6 10 C2.66282451 8.6190998 0.77698964 7.1798762 -1 4 C-0.6875 1.75 -0.6875 1.75 0 0 Z " fill="#303030" transform="translate(49,154)"/>
<path d="M0 0 C0.33 1.32 0.66 2.64 1 4 C1.66 4 2.32 4 3 4 C2.25 8.75 2.25 8.75 0 11 C0 7.37 0 3.74 0 0 Z " fill="#319898" transform="translate(55,112)"/>
<path d="M0 0 C0.66 0.33 1.32 0.66 2 1 C2 1.66 2 2.32 2 3 C-1.465 4.485 -1.465 4.485 -5 6 C-5 5.01 -5 4.02 -5 3 C-2.625 1.25 -2.625 1.25 0 0 Z " fill="#ECF3F3" transform="translate(95,90)"/>
</svg>
