<?xml version="1.0" encoding="UTF-8"?>
<svg version="1.1" xmlns="http://www.w3.org/2000/svg" width="128" height="117">
<path d="M0 0 C42.24 0 84.48 0 128 0 C128 38.61 128 77.22 128 117 C85.76 117 43.52 117 0 117 C0 78.39 0 39.78 0 0 Z " fill="#FAFBFB" transform="translate(0,0)"/>
<path d="M0 0 C2.1875 -0.375 2.1875 -0.375 5 0 C7.6875 2.9375 7.6875 2.9375 10 6 C10.99 6.495 10.99 6.495 12 7 C12.495 8.98 12.495 8.98 13 11 C18.28 11.33 23.56 11.66 29 12 C29 12.66 29 13.32 29 14 C19.58997722 17.44419134 19.58997722 17.44419134 15 17 C15.0928125 18.60875 15.0928125 18.60875 15.1875 20.25 C14.98424294 24.31514116 14.55920552 25.06165292 12 28 C11.525625 29.051875 11.05125 30.10375 10.5625 31.1875 C9 34 9 34 6.90234375 34.67578125 C6.27457031 34.78277344 5.64679688 34.88976563 5 35 C5.28657394 33.45737855 5.57953877 31.91594394 5.875 30.375 C6.03742188 29.51648438 6.19984375 28.65796875 6.3671875 27.7734375 C7.0464046 24.79662182 8.03445521 21.89663438 9 19 C3.72 19.33 -1.56 19.66 -7 20 C-5.50018478 23.49956884 -3.99940421 27.00124099 -2.3515625 30.43359375 C0.53148551 38.04117418 0.5764005 47.49083301 -2.4296875 55.11328125 C-4.79916826 60.27242372 -7.08315921 64.88890162 -12 68 C-12.99 67.505 -12.99 67.505 -14 67 C-13.21625 66.2575 -12.4325 65.515 -11.625 64.75 C-9.43495469 62.45566682 -8.17268614 60.87841142 -7 58 C-9.97 58.495 -9.97 58.495 -13 59 C-13.495 56.03 -13.495 56.03 -14 53 C-14.99 53.495 -14.99 53.495 -16 54 C-17.99960012 54.039992 -20.00047242 54.04346799 -22 54 C-21.67 54.33 -21.34 54.66 -21 55 C-21.33 55.99 -21.66 56.98 -22 58 C-22.99 58.33 -23.98 58.66 -25 59 C-25.33 59.99 -25.66 60.98 -26 62 C-25.34 62 -24.68 62 -24 62 C-24 62.66 -24 63.32 -24 64 C-24.99 64.33 -25.98 64.66 -27 65 C-27 64.34 -27 63.68 -27 63 C-27.8353125 63.495 -27.8353125 63.495 -28.6875 64 C-31.30284522 65.1309601 -33.1806646 65.15662974 -36 65 C-36.21192221 59.80790596 -35.5912689 55.873261 -34 51 C-35.65 50.34 -37.3 49.68 -39 49 C-39.3125 46.8125 -39.3125 46.8125 -39 44 C-36.82453396 41.48103932 -34.989803 39.4949015 -32 38 C-31.01 38.495 -31.01 38.495 -30 39 C-30.495 36.03 -30.495 36.03 -31 33 C-30.01 32.67 -29.02 32.34 -28 32 C-28 33.32 -28 34.64 -28 36 C-26.68 36 -25.36 36 -24 36 C-24.495 34.02 -24.495 34.02 -25 32 C-21.86501708 30.14223235 -19.62528568 29.79859524 -16 30 C-15.78601563 30.64453125 -15.57203125 31.2890625 -15.3515625 31.953125 C-14.1526477 34.27839115 -14.1526477 34.27839115 -11.3984375 34.609375 C-10.40070313 34.65578125 -9.40296875 34.7021875 -8.375 34.75 C-6.87066406 34.83507813 -6.87066406 34.83507813 -5.3359375 34.921875 C-4.56507812 34.94765625 -3.79421875 34.9734375 -3 35 C-3.28875 34.44570313 -3.5775 33.89140625 -3.875 33.3203125 C-4.24625 32.59585938 -4.6175 31.87140625 -5 31.125 C-5.556875 30.04605469 -5.556875 30.04605469 -6.125 28.9453125 C-7 27 -7 27 -7 25 C-8.32 25 -9.64 25 -11 25 C-11.226875 24.2575 -11.45375 23.515 -11.6875 22.75 C-14.27147054 17.3359665 -18.76917605 15.47742199 -24.1328125 13.515625 C-26.15911486 12.86690627 -26.15911486 12.86690627 -29 13 C-28.34 13.66 -27.68 14.32 -27 15 C-27.375 18.125 -27.375 18.125 -28 21 C-29.60256108 21.50512244 -31.20711792 22.00391627 -32.8125 22.5 C-33.70582031 22.7784375 -34.59914062 23.056875 -35.51953125 23.34375 C-38 24 -38 24 -41 24 C-40.67 21.36 -40.34 18.72 -40 16 C-42.475 14.515 -42.475 14.515 -45 13 C-44.67 15.64 -44.34 18.28 -44 21 C-44.66 21 -45.32 21 -46 21 C-46 19.68 -46 18.36 -46 17 C-46.763125 17.33 -47.52625 17.66 -48.3125 18 C-51 19 -51 19 -54 19 C-53.34 20.65 -52.68 22.3 -52 24 C-51.54625 23.505 -51.0925 23.01 -50.625 22.5 C-49 21 -49 21 -47 21 C-47 21.99 -47 22.98 -47 24 C-46.34 24 -45.68 24 -45 24 C-45 24.99 -45 25.98 -45 27 C-54.22551253 32.74031891 -54.22551253 32.74031891 -60 32 C-60.33 32.66 -60.66 33.32 -61 34 C-56.17758823 34.52885185 -53.65024871 32.85056475 -49.625 30.3125 C-39.20019492 24.04038357 -28.28595581 20.2809678 -16 20 C-19.32628166 22.21752111 -21.80250071 22.74148263 -25.6875 23.625 C-37.96400009 26.67980797 -49.60070737 32.47101224 -59 41 C-59.66773438 41.59941406 -60.33546875 42.19882812 -61.0234375 42.81640625 C-66.95818719 48.42413912 -68.18895056 53.02468054 -69 61 C-71 59 -71 59 -71.375 55.8125 C-70.99497563 51.94891894 -69.99507428 50.19743299 -67.9375 47.00390625 C-66.76461029 44.49685449 -66.68665176 42.44599687 -66.5625 39.6875 C-66.06340882 31.23777031 -62.02372495 23.8898644 -56 18 C-46.44198177 11.32863157 -37.73019169 8.51359767 -26 10 C-21.73780584 11.6165323 -17.92057137 13.69297376 -14 16 C-13.67 16 -13.34 16 -13 16 C-13 15.34 -13 14.68 -13 14 C-9.125 14.875 -9.125 14.875 -8 16 C-6.43385158 15.93511249 -4.87048984 15.7973337 -3.3125 15.625 C-2.41402344 15.52574219 -1.51554687 15.42648438 -0.58984375 15.32421875 C2.28975691 14.96372576 5.1458893 14.52575724 8 14 C7.59007813 13.32453125 7.18015625 12.6490625 6.7578125 11.953125 C6.21898438 11.06109375 5.68015625 10.1690625 5.125 9.25 C4.59132813 8.36828125 4.05765625 7.4865625 3.5078125 6.578125 C2.24403334 4.41725907 1.08501165 2.25429605 0 0 Z " fill="#188989" transform="translate(94,18)"/>
<path d="M0 0 C6.63710857 7.55257183 7.87892555 14.80108915 7.5546875 24.54296875 C6.92297059 31.93598062 3.48876636 40.06016541 -2.234375 44.8828125 C-2.81703125 45.25148437 -3.3996875 45.62015625 -4 46 C-4.66 45.67 -5.32 45.34 -6 45 C-5.21625 44.2575 -4.4325 43.515 -3.625 42.75 C-1.43495469 40.45566682 -0.17268614 38.87841142 1 36 C-1.97 36.495 -1.97 36.495 -5 37 C-5.33 35.02 -5.66 33.04 -6 31 C-6.66 31.33 -7.32 31.66 -8 32 C-9.99960012 32.039992 -12.00047242 32.04346799 -14 32 C-13.505 32.495 -13.505 32.495 -13 33 C-13.33 33.99 -13.66 34.98 -14 36 C-15.485 36.495 -15.485 36.495 -17 37 C-17.33 37.99 -17.66 38.98 -18 40 C-17.34 40 -16.68 40 -16 40 C-16 40.66 -16 41.32 -16 42 C-17.485 42.495 -17.485 42.495 -19 43 C-19 42.34 -19 41.68 -19 41 C-19.8353125 41.495 -19.8353125 41.495 -20.6875 42 C-23.30284522 43.1309601 -25.1806646 43.15662974 -28 43 C-28.21192221 37.80790596 -27.5912689 33.873261 -26 29 C-28.475 28.01 -28.475 28.01 -31 27 C-31.3125 24.8125 -31.3125 24.8125 -31 22 C-28.82453396 19.48103932 -26.989803 17.4949015 -24 16 C-23.34 16.33 -22.68 16.66 -22 17 C-22.33 15.02 -22.66 13.04 -23 11 C-22.01 10.67 -21.02 10.34 -20 10 C-20 11.32 -20 12.64 -20 14 C-18.68 14 -17.36 14 -16 14 C-16.33 12.68 -16.66 11.36 -17 10 C-13.86501708 8.14223235 -11.62528568 7.79859524 -8 8 C-7.78601563 8.64453125 -7.57203125 9.2890625 -7.3515625 9.953125 C-6.1526477 12.27839115 -6.1526477 12.27839115 -3.3984375 12.609375 C-1.90183594 12.67898437 -1.90183594 12.67898437 -0.375 12.75 C1.12933594 12.83507812 1.12933594 12.83507812 2.6640625 12.921875 C3.43492188 12.94765625 4.20578125 12.9734375 5 13 C4.71125 12.44570313 4.4225 11.89140625 4.125 11.3203125 C3.75375 10.59585938 3.3825 9.87140625 3 9.125 C2.62875 8.40570313 2.2575 7.68640625 1.875 6.9453125 C1 5 1 5 1 3 C0.34 2.67 -0.32 2.34 -1 2 C-0.67 1.34 -0.34 0.68 0 0 Z " fill="#0A8484" transform="translate(86,40)"/>
<path d="M0 0 C2.1875 -0.375 2.1875 -0.375 5 0 C7.6875 2.9375 7.6875 2.9375 10 6 C10.66 6.33 11.32 6.66 12 7 C12.33 8.32 12.66 9.64 13 11 C18.28 11.33 23.56 11.66 29 12 C29 12.66 29 13.32 29 14 C19.58997722 17.44419134 19.58997722 17.44419134 15 17 C15.0928125 18.60875 15.0928125 18.60875 15.1875 20.25 C14.98424294 24.31514116 14.55920552 25.06165292 12 28 C11.525625 29.051875 11.05125 30.10375 10.5625 31.1875 C9 34 9 34 6.90234375 34.67578125 C6.27457031 34.78277344 5.64679688 34.88976563 5 35 C5.28657394 33.45737855 5.57953877 31.91594394 5.875 30.375 C6.11863281 29.08722656 6.11863281 29.08722656 6.3671875 27.7734375 C7.0464046 24.79662182 8.03445521 21.89663438 9 19 C3.72 19.33 -1.56 19.66 -7 20 C-7.99 22.475 -7.99 22.475 -9 25 C-9.66 25 -10.32 25 -11 25 C-10.95875 23.9275 -10.9175 22.855 -10.875 21.75 C-10.9885825 18.34252515 -11.21273364 16.79260369 -13 14 C-9.125 14.875 -9.125 14.875 -8 16 C-6.43385158 15.93511249 -4.87048984 15.7973337 -3.3125 15.625 C-2.41402344 15.52574219 -1.51554687 15.42648438 -0.58984375 15.32421875 C2.28975691 14.96372576 5.1458893 14.52575724 8 14 C7.59007813 13.32453125 7.18015625 12.6490625 6.7578125 11.953125 C6.21898438 11.06109375 5.68015625 10.1690625 5.125 9.25 C4.59132813 8.36828125 4.05765625 7.4865625 3.5078125 6.578125 C2.24403334 4.41725907 1.08501165 2.25429605 0 0 Z " fill="#0F0F0F" transform="translate(94,18)"/>
<path d="M0 0 C1.32706175 0.67906504 2.65796248 1.3510335 4 2 C4 3.65 4 5.3 4 7 C3.319375 6.2575 2.63875 5.515 1.9375 4.75 C-3.07144633 -0.21661721 -8.00715017 -2.42915512 -15 -3 C-14.34 -2.34 -13.68 -1.68 -13 -1 C-13.375 2.125 -13.375 2.125 -14 5 C-15.60256108 5.50512244 -17.20711792 6.00391627 -18.8125 6.5 C-19.70582031 6.7784375 -20.59914063 7.056875 -21.51953125 7.34375 C-24 8 -24 8 -27 8 C-26.67 5.36 -26.34 2.72 -26 0 C-28.475 -1.485 -28.475 -1.485 -31 -3 C-30.67 -0.36 -30.34 2.28 -30 5 C-30.66 5 -31.32 5 -32 5 C-32 3.68 -32 2.36 -32 1 C-32.680625 1.28875 -33.36125 1.5775 -34.0625 1.875 C-37.32893093 3.12597355 -40.62846123 4.07447955 -44 5 C-31.83787481 -8.73143167 -15.18684989 -9.07449545 0 0 Z " fill="#218D8D" transform="translate(80,34)"/>
<path d="M0 0 C3.90525896 1.54393959 5.7159772 4.42986437 7.6875 8.0625 C7.6875 8.7225 7.6875 9.3825 7.6875 10.0625 C3.81713993 13.14534263 -0.32036149 15.59448701 -5.3125 16.0625 C-4.89443943 20.93987336 -2.9058436 22.8774909 0.6875 26.0625 C1.47125 26.76375 2.255 27.465 3.0625 28.1875 C6.16777948 30.40555677 9.14032902 31.67145256 12.6875 33.0625 C10.09531448 34.05170183 8.98558659 34.17734073 6.35546875 33.1640625 C-2.23667477 28.04936919 -8.07070107 21.59720275 -11.3125 12.0625 C-11.3125 11.0725 -11.3125 10.0825 -11.3125 9.0625 C-10.6525 9.0625 -9.9925 9.0625 -9.3125 9.0625 C-9.3125 10.3825 -9.3125 11.7025 -9.3125 13.0625 C-5.20295663 9.74835212 -4.88156579 7.18409208 -4.3125 2.0625 C-2.3125 0.0625 -2.3125 0.0625 0 0 Z " fill="#1A8B8B" transform="translate(39.3125,57.9375)"/>
<path d="M0 0 C-3.32628166 2.21752111 -5.80250071 2.74148263 -9.6875 3.625 C-21.96400009 6.67980797 -33.60070737 12.47101224 -43 21 C-44.00160156 21.89912109 -44.00160156 21.89912109 -45.0234375 22.81640625 C-50.95818719 28.42413912 -52.18895056 33.02468054 -53 41 C-55 39 -55 39 -55.5 36 C-55.21973024 28.4949986 -49.70490395 22.3542893 -44.5625 17.375 C-32.60431257 7.23029145 -15.86582829 -0.46664201 0 0 Z " fill="#323131" transform="translate(78,38)"/>
<path d="M0 0 C0.66 0 1.32 0 2 0 C1.855625 0.57105469 1.71125 1.14210937 1.5625 1.73046875 C-1.56512431 15.39210551 -0.78841948 29.47264928 6.6328125 41.6875 C8.18491462 43.78244774 8.18491462 43.78244774 9.765625 45.51953125 C11 47 11 47 12 50 C13.82978795 51.06123844 13.82978795 51.06123844 16 52 C17.47094083 52.9601232 18.92885459 53.9404208 20.375 54.9375 C23.82477976 57.26966516 27.22260697 59.25658783 31 61 C27.36762541 62.21079153 26.77432105 61.76395223 23.4375 60.125 C10.80325499 53.40269762 2.91069509 42.92185245 -1.41772461 29.39111328 C-2.39006177 25.39821173 -2.39542015 21.52712171 -2.3125 17.4375 C-2.31572266 16.63892578 -2.31894531 15.84035156 -2.32226562 15.01757812 C-2.2746902 9.71075596 -1.46617627 5.09948959 0 0 Z " fill="#292929" transform="translate(15,42)"/>
<path d="M0 0 C2.9375 0.8125 2.9375 0.8125 4.9375 3.8125 C5.29590349 6.67972793 5.34871458 8.18485669 3.75 10.625 C1.22124096 12.28177316 -0.096021 12.39132517 -3.0625 11.8125 C-5.4375 9.625 -5.4375 9.625 -7.0625 6.8125 C-7 4.125 -7 4.125 -6.0625 1.8125 C-3.0625 -0.1875 -3.0625 -0.1875 0 0 Z " fill="#171717" transform="translate(90.0625,87.1875)"/>
<path d="M0 0 C1.8125 1.125 1.8125 1.125 3 3 C3.4375 6 3.4375 6 3 9 C1.375 10.9375 1.375 10.9375 -1 12 C-4.1875 11.8125 -4.1875 11.8125 -7 11 C-8.39935013 8.20129973 -8.25265405 6.09501208 -8 3 C-5.90534242 -0.30735407 -3.75951639 -0.56392746 0 0 Z " fill="#1A1A1A" transform="translate(68,96)"/>
<path d="M0 0 C0.763125 0.20625 1.52625 0.4125 2.3125 0.625 C2.415625 1.264375 2.51875 1.90375 2.625 2.5625 C2.9653125 3.5834375 2.9653125 3.5834375 3.3125 4.625 C4.3025 4.955 5.2925 5.285 6.3125 5.625 C5.9825 6.615 5.6525 7.605 5.3125 8.625 C3.6625 8.295 2.0125 7.965 0.3125 7.625 C0.3125 8.285 0.3125 8.945 0.3125 9.625 C0.9725 9.625 1.6325 9.625 2.3125 9.625 C1.9825 10.615 1.6525 11.605 1.3125 12.625 C-1.6875 12.625 -1.6875 12.625 -3.29296875 11.09375 C-4.07607422 10.11921875 -4.07607422 10.11921875 -4.875 9.125 C-5.40480469 8.4753125 -5.93460938 7.825625 -6.48046875 7.15625 C-6.87878906 6.6509375 -7.27710937 6.145625 -7.6875 5.625 C-6.02612914 1.79106724 -4.59035464 -0.6405146 0 0 Z " fill="#232323" transform="translate(27.6875,20.375)"/>
<path d="M0 0 C2.64 0 5.28 0 8 0 C8 0.99 8 1.98 8 3 C6.35 3 4.7 3 3 3 C3 3.66 3 4.32 3 5 C4.32 5 5.64 5 7 5 C7 7.31 7 9.62 7 12 C4.36 12 1.72 12 -1 12 C-1.02698189 10.37509046 -1.04638757 8.75005367 -1.0625 7.125 C-1.07410156 6.22007813 -1.08570313 5.31515625 -1.09765625 4.3828125 C-1 2 -1 2 0 0 Z " fill="#282828" transform="translate(64,8)"/>
<path d="M0 0 C5.625 1.125 5.625 1.125 8.3125 5.0625 C8.82425781 5.79597656 9.33601563 6.52945312 9.86328125 7.28515625 C10.23839844 7.85105469 10.61351562 8.41695312 11 9 C7.98968256 9.93423645 7.13349732 10.04449911 4 9 C4 9.99 4 10.98 4 12 C2.68 12.33 1.36 12.66 0 13 C0 8.71 0 4.42 0 0 Z " fill="#222222" transform="translate(36,13)"/>
<path d="M0 0 C0.99 0 1.98 0 3 0 C2.67 3.96 2.34 7.92 2 12 C0.35 12 -1.3 12 -3 12 C-3.83848804 10.54462432 -4.67063934 9.08559627 -5.5 7.625 C-6.19609375 6.40683594 -6.19609375 6.40683594 -6.90625 5.1640625 C-8 3 -8 3 -8 1 C-6.68 1 -5.36 1 -4 1 C-3.34 2.32 -2.68 3.64 -2 5 C-1.34 3.35 -0.68 1.7 0 0 Z " fill="#2B2B2B" transform="translate(55,8)"/>
<path d="M0 0 C2.31 0 4.62 0 7 0 C7 0.99 7 1.98 7 3 C5.68 2.67 4.36 2.34 3 2 C3 2.66 3 3.32 3 4 C4.32 4.66 5.64 5.32 7 6 C6.67 7.65 6.34 9.3 6 11 C3.69 11 1.38 11 -1 11 C-0.67 9.68 -0.34 8.36 0 7 C0.33 7 0.66 7 1 7 C0.34 6.34 -0.32 5.68 -1 5 C-0.625 2.375 -0.625 2.375 0 0 Z " fill="#121212" transform="translate(49,97)"/>
<path d="M0 0 C0.66 0.33 1.32 0.66 2 1 C2 1.66 2 2.32 2 3 C1.360625 3.2371875 0.72125 3.474375 0.0625 3.71875 C-2.18574298 4.80933123 -2.18574298 4.80933123 -2.6875 7.09375 C-2.8421875 8.28484375 -2.8421875 8.28484375 -3 9.5 C-3.3125 11.90625 -3.3125 11.90625 -4 14 C-6.0625 15.28125 -6.0625 15.28125 -8 16 C-8 14.68 -8 13.36 -8 12 C-8.66 12 -9.32 12 -10 12 C-10.33 12.99 -10.66 13.98 -11 15 C-11.33 14.34 -11.66 13.68 -12 13 C-8.13635705 8.51282966 -4.25209792 4.12324647 0 0 Z " fill="#EAF1F1" transform="translate(38,55)"/>
<path d="M0 0 C0.33 0.99 0.66 1.98 1 3 C0.06027344 3.88751953 0.06027344 3.88751953 -0.8984375 4.79296875 C-1.71570312 5.58316406 -2.53296875 6.37335937 -3.375 7.1875 C-4.59316406 8.35345703 -4.59316406 8.35345703 -5.8359375 9.54296875 C-9.02086056 13.15906371 -10.14343932 16.57715327 -10.625 21.3125 C-10.74875 22.529375 -10.8725 23.74625 -11 25 C-13 23 -13 23 -13.5 20 C-13.30609619 13.80800487 -9.27252909 8.29067304 -5.04296875 4.02734375 C-3.41313502 2.62323037 -1.71274685 1.3016876 0 0 Z " fill="#323232" transform="translate(36,54)"/>
<path d="M0 0 C0.66 0 1.32 0 2 0 C2.061875 0.598125 2.12375 1.19625 2.1875 1.8125 C3.3236757 4.87143458 5.17330142 5.55041099 8 7 C7.67 8.32 7.34 9.64 7 11 C4.9637551 9.98187755 2.93639045 8.96530388 0.9375 7.875 C-1.10136548 6.79420664 -1.10136548 6.79420664 -4 7 C-2.92598892 4.08482708 -2.22189824 2.22189824 0 0 Z " fill="#1B1B1B" transform="translate(15,30)"/>
<path d="M0 0 C0.33 0 0.66 0 1 0 C2.12919025 12.58838016 -1.47673669 22.86194396 -9 33 C-9.66 33 -10.32 33 -11 33 C-9.96433355 30.90957647 -8.91149382 28.83350323 -7.81640625 26.7734375 C-3.24735502 18.03388157 -0.79224361 9.8238208 0 0 Z " fill="#282828" transform="translate(107,57)"/>
<path d="M0 0 C0.66 2.64 1.32 5.28 2 8 C3.32 7.67 4.64 7.34 6 7 C6 7.99 6 8.98 6 10 C4.02 10.66 2.04 11.32 0 12 C-0.67119549 10.5437455 -1.33681807 9.08492133 -2 7.625 C-2.37125 6.81289062 -2.7425 6.00078125 -3.125 5.1640625 C-4 3 -4 3 -4 1 C-2 0 -2 0 0 0 Z " fill="#1A1A1A" transform="translate(77,93)"/>
<path d="M0 0 C1.7074998 1.28062485 3.37373596 2.61767557 5 4 C5 4.66 5 5.32 5 6 C5.56976563 6.26941406 6.13953125 6.53882812 6.7265625 6.81640625 C9.07899759 8.04112761 11.19233457 9.43260962 13.375 10.9375 C16.82477976 13.26966516 20.22260697 15.25658783 24 17 C20.36762541 18.21079153 19.77432105 17.76395223 16.4375 16.125 C10.5945609 13.05745697 2.45011181 8.24831751 0.22265625 1.72265625 C0.14917969 1.15417969 0.07570313 0.58570312 0 0 Z " fill="#343434" transform="translate(22,86)"/>
<path d="M0 0 C0.99 0 1.98 0 3 0 C2.34 2.97 1.68 5.94 1 9 C1.99 9 2.98 9 4 9 C4 9.99 4 10.98 4 12 C1.69 11.67 -0.62 11.34 -3 11 C-2.53199289 6.94393835 -2.12046792 3.53411321 0 0 Z " fill="#1A1A1A" transform="translate(78,11)"/>
<path d="M0 0 C9.97413793 2.30172414 9.97413793 2.30172414 13 6 C10.69 6 8.38 6 6 6 C5.34 7.65 4.68 9.3 4 11 C3.34 11 2.68 11 2 11 C2.04125 9.9275 2.0825 8.855 2.125 7.75 C2.0114175 4.34252515 1.78726636 2.79260369 0 0 Z " fill="#191818" transform="translate(81,32)"/>
<path d="M0 0 C4 1 4 1 5 2 C5.3125 4.875 5.3125 4.875 5 8 C3.125 9.875 3.125 9.875 1 11 C0.34 11 -0.32 11 -1 11 C-1 10.34 -1 9.68 -1 9 C-0.34 9 0.32 9 1 9 C0.67 6.03 0.34 3.06 0 0 Z " fill="#131313" transform="translate(66,97)"/>
<path d="M0 0 C0.33 0.99 0.66 1.98 1 3 C-0.88457538 4.20528665 -2.78317585 5.38866449 -4.6875 6.5625 C-6.27111328 7.55443359 -6.27111328 7.55443359 -7.88671875 8.56640625 C-11.26557247 10.12228996 -12.54410943 10.17333576 -16 9 C-15.67 8.01 -15.34 7.02 -15 6 C-13.7315625 6.12375 -13.7315625 6.12375 -12.4375 6.25 C-7.96520711 5.92474234 -5.79559115 4.3357484 -2 2 C-1.34 2 -0.68 2 0 2 C0 1.34 0 0.68 0 0 Z " fill="#C8D4D4" transform="translate(49,43)"/>
<path d="M0 0 C2 3 2 3 2 5 C-2.62921525 6.0161692 -6.34462607 5.83796731 -11 5 C-8.28605338 3.19070225 -7.01212543 2.73021222 -4 2 C-2.6520257 1.36345658 -1.31403276 0.70394612 0 0 Z " fill="#B7DBDB" transform="translate(89,48)"/>
<path d="M0 0 C3.96189783 4.23513217 5.43181728 8.547001 7 14 C6.34 14 5.68 14 5 14 C4.67 14.99 4.34 15.98 4 17 C3.67 16.34 3.34 15.68 3 15 C2.34 14.67 1.68 14.34 1 14 C2.32 13.67 3.64 13.34 5 13 C4.71125 12.44570313 4.4225 11.89140625 4.125 11.3203125 C3.568125 10.23363281 3.568125 10.23363281 3 9.125 C2.62875 8.40570313 2.2575 7.68640625 1.875 6.9453125 C1 5 1 5 1 3 C0.34 2.67 -0.32 2.34 -1 2 C-0.67 1.34 -0.34 0.68 0 0 Z " fill="#4EA3A3" transform="translate(86,40)"/>
<path d="M0 0 C4.42857143 5.14285714 4.42857143 5.14285714 5 9 C2.24542282 8.62005832 1.17979426 8.1926367 -0.75 6.125 C-2 4 -2 4 -2 1 C-1.34 0.67 -0.68 0.34 0 0 Z " fill="#101010" transform="translate(85,90)"/>
<path d="M0 0 C0.33 0.99 0.66 1.98 1 3 C-1.31 5.31 -3.62 7.62 -6 10 C-6.66 9.34 -7.32 8.68 -8 8 C-7.04578192 6.85073734 -6.08647955 5.70569459 -5.125 4.5625 C-4.59132813 3.92441406 -4.05765625 3.28632812 -3.5078125 2.62890625 C-2 1 -2 1 0 0 Z " fill="#292929" transform="translate(36,54)"/>
<path d="M0 0 C1.65 1.32 3.3 2.64 5 4 C2.03 6.475 2.03 6.475 -1 9 C-0.67 6.03 -0.34 3.06 0 0 Z " fill="#F2F6F6" transform="translate(30,51)"/>
<path d="M0 0 C0.99 0 1.98 0 3 0 C5 3 5 3 5 6 C3.68 5.67 2.36 5.34 1 5 C0.67 3.35 0.34 1.7 0 0 Z " fill="#D8D8D8" transform="translate(87,90)"/>
<path d="M0 0 C0.99 0 1.98 0 3 0 C2.67 2.64 2.34 5.28 2 8 C1.34 8 0.68 8 0 8 C0 5.36 0 2.72 0 0 Z " fill="#151515" transform="translate(55,8)"/>
<path d="M0 0 C0.99 0.33 1.98 0.66 3 1 C0.63707344 3.52588702 -0.66462511 4.88820837 -4 6 C-3.6875 4.125 -3.6875 4.125 -3 2 C-2.01 1.34 -1.02 0.68 0 0 Z " fill="#1E1D1D" transform="translate(41,50)"/>
<path d="M0 0 C0.99 0 1.98 0 3 0 C3 1.98 3 3.96 3 6 C2.01 6 1.02 6 0 6 C0 4.02 0 2.04 0 0 Z " fill="#EEEEEE" transform="translate(64,99)"/>
<path d="M0 0 C0.66 0 1.32 0 2 0 C2 1.32 2 2.64 2 4 C2.66 4.33 3.32 4.66 4 5 C3.67 5.66 3.34 6.32 3 7 C2.34 7 1.68 7 1 7 C1 6.01 1 5.02 1 4 C0.01 3.67 -0.98 3.34 -2 3 C-1.34 2.01 -0.68 1.02 0 0 Z " fill="#D5EAEA" transform="translate(46,35)"/>
<path d="M0 0 C2.97 0.495 2.97 0.495 6 1 C5.01 2.485 5.01 2.485 4 4 C2.35 3.67 0.7 3.34 -1 3 C-0.67 2.01 -0.34 1.02 0 0 Z " fill="#E8F1F1" transform="translate(34,49)"/>
<path d="M0 0 C-0.33 0.99 -0.66 1.98 -1 3 C-4.0625 4.1875 -4.0625 4.1875 -7 5 C-6 2 -6 2 -4.0625 0.8125 C-2 0 -2 0 0 0 Z " fill="#121111" transform="translate(50,46)"/>
</svg>
